{
	"asset":{
		"generator":"Khronos glTF Blender I/O v4.5.48",
		"version":"2.0"
	},
	"scene":0,
	"scenes":[
		{
			"extras":{
				"vs":{
					"export_list":[
						{
							"name":"Collection.dmx",
							"item_name":"Collection",
							"ob_type":"COLLECTION",
							"icon":"GROUP"
						}
					]
				},
				"hat_props":{
					"test_on_save":1
				},
				"myAddon":{},
				"uvp2_props":{
					"heuristic_enable":1,
					"heuristic_search_time":300,
					"margin":0.007000000216066837
				},
				"SimpleBake_Props":{}
			},
			"name":"Scene",
			"nodes":[
				0
			]
		}
	],
	"nodes":[
		{
			"extras":{
				"vs":{}
			},
			"mesh":0,
			"name":"antique_estoc",
			"rotation":[
				0.7071068286895752,
				0,
				0,
				0.7071068286895752
			]
		}
	],
	"materials":[
		{
			"doubleSided":true,
			"name":"antique_estoc"
		}
	],
	"meshes":[
		{
			"name":"Cylinder.004",
			"primitives":[
				{
					"attributes":{
						"POSITION":0,
						"NORMAL":1,
						"TEXCOORD_0":2,
						"TANGENT":3
					},
					"indices":4,
					"material":0
				}
			]
		}
	],
	"accessors":[
		{
			"bufferView":0,
			"componentType":5126,
			"count":5537,
			"max":[
				0.18569593131542206,
				0.07381919026374817,
				0.19931820034980774
			],
			"min":[
				-0.18582312762737274,
				-0.07527782022953033,
				-1.2930612564086914
			],
			"type":"VEC3"
		},
		{
			"bufferView":1,
			"componentType":5126,
			"count":5537,
			"type":"VEC3"
		},
		{
			"bufferView":2,
			"componentType":5126,
			"count":5537,
			"type":"VEC2"
		},
		{
			"bufferView":3,
			"componentType":5126,
			"count":5537,
			"type":"VEC4"
		},
		{
			"bufferView":4,
			"componentType":5123,
			"count":24738,
			"type":"SCALAR"
		}
	],
	"bufferViews":[
		{
			"buffer":0,
			"byteLength":66444,
			"byteOffset":0,
			"target":34962
		},
		{
			"buffer":0,
			"byteLength":66444,
			"byteOffset":66444,
			"target":34962
		},
		{
			"buffer":0,
			"byteLength":44296,
			"byteOffset":132888,
			"target":34962
		},
		{
			"buffer":0,
			"byteLength":88592,
			"byteOffset":177184,
			"target":34962
		},
		{
			"buffer":0,
			"byteLength":49476,
			"byteOffset":265776,
			"target":34963
		}
	],
	"buffers":[
		{
			"byteLength":315252,
			"uri":"antique_estoc_4k-e0259848211f03e49df94562e3edc18d.bin"
		}
	]
}
