{
	"asset":{
		"generator":"Khronos glTF Blender I/O v4.5.48",
		"version":"2.0"
	},
	"scene":0,
	"scenes":[
		{
			"extras":{
				"kitops":{},
				"bc":{},
				"gaf_props":{
					"IsShowingRadius":0,
					"IsShowingLabel":0
				},
				"mfp_props":{}
			},
			"name":"Scene",
			"nodes":[
				0,
				1
			]
		}
	],
	"nodes":[
		{
			"camera":0,
			"name":"R_camera",
			"rotation":[
				-0.0648617371916771,
				-0.16537374258041382,
				-0.6025609970092773,
				0.778052031993866
			],
			"scale":[
				1.1595107316970825,
				1.1595107316970825,
				1.1595104932785034
			],
			"translation":[
				-0.2352582961320877,
				0.6837018132209778,
				1.3028438091278076
			]
		},
		{
			"extras":{
				"hops":{},
				"kitops":{}
			},
			"mesh":0,
			"name":"antique_katana_01"
		}
	],
	"cameras":[
		{
			"name":"Camera",
			"perspective":{
				"aspectRatio":2,
				"yfov":0.3561859015430042,
				"zfar":1000,
				"znear":0.10000000149011612
			},
			"type":"perspective"
		}
	],
	"materials":[
		{
			"doubleSided":true,
			"name":"antique_katana_01"
		}
	],
	"meshes":[
		{
			"name":"Plane",
			"primitives":[
				{
					"attributes":{
						"POSITION":0,
						"NORMAL":1,
						"TEXCOORD_0":2,
						"TANGENT":3
					},
					"indices":4,
					"material":0
				}
			]
		}
	],
	"accessors":[
		{
			"bufferView":0,
			"componentType":5126,
			"count":5877,
			"max":[
				0.04668637365102768,
				0.6963200569152832,
				0.04668637365102768
			],
			"min":[
				-0.04668637365102768,
				-0.3066237270832062,
				-0.04668637365102768
			],
			"type":"VEC3"
		},
		{
			"bufferView":1,
			"componentType":5126,
			"count":5877,
			"type":"VEC3"
		},
		{
			"bufferView":2,
			"componentType":5126,
			"count":5877,
			"type":"VEC2"
		},
		{
			"bufferView":3,
			"componentType":5126,
			"count":5877,
			"type":"VEC4"
		},
		{
			"bufferView":4,
			"componentType":5123,
			"count":20010,
			"type":"SCALAR"
		}
	],
	"bufferViews":[
		{
			"buffer":0,
			"byteLength":70524,
			"byteOffset":0,
			"target":34962
		},
		{
			"buffer":0,
			"byteLength":70524,
			"byteOffset":70524,
			"target":34962
		},
		{
			"buffer":0,
			"byteLength":47016,
			"byteOffset":141048,
			"target":34962
		},
		{
			"buffer":0,
			"byteLength":94032,
			"byteOffset":188064,
			"target":34962
		},
		{
			"buffer":0,
			"byteLength":40020,
			"byteOffset":282096,
			"target":34963
		}
	],
	"buffers":[
		{
			"byteLength":322116,
			"uri":"antique_katana_01_4k-7af0518ca2866eec7fece889d7abb624.bin"
		}
	]
}
